<?xml version="1.0" standalone="no"?>
<!DOCTYPE svg PUBLIC "-//W3C//DTD SVG 20010904//EN"
 "http://www.w3.org/TR/2001/REC-SVG-20010904/DTD/svg10.dtd">
<svg version="1.0" xmlns="http://www.w3.org/2000/svg"
 width="64.000000pt" height="64.000000pt" viewBox="0 0 64.000000 64.000000"
 preserveAspectRatio="xMidYMid meet">

<g transform="translate(0.000000,64.000000) scale(0.100000,-0.100000)"
fill="#000000" stroke="none">
<path d="M0 320 l0 -320 320 0 320 0 0 320 0 320 -320 0 -320 0 0 -320z m90
179 c0 -5 -7 -9 -15 -9 -15 0 -20 12 -9 23 8 8 24 -1 24 -14z m309 -17 c13
-10 31 -29 40 -42 11 -18 7 -16 -16 8 -39 41 -53 42 -19 1 14 -17 26 -35 26
-40 0 -17 -17 -9 -30 15 -15 29 -50 45 -104 48 -30 2 -43 -3 -57 -21 -36 -44
-18 -57 21 -16 38 40 106 31 131 -18 11 -21 10 -21 -15 3 l-27 25 14 -28 c13
-26 40 -50 82 -73 10 -6 21 -17 24 -25 3 -9 -1 -8 -13 4 -10 9 -25 17 -34 17
-13 0 -14 -2 -4 -9 8 -5 12 -17 10 -27 -6 -33 -23 -21 -26 19 -3 41 -25 47
-30 9 -4 -24 -28 -47 -35 -35 -3 5 -2 15 4 23 7 13 9 13 10 0 0 -8 4 -4 8 10
5 17 3 31 -7 42 -14 16 -16 16 -32 -5 -10 -13 -20 -36 -23 -52 -3 -22 -4 -18
-5 15 -1 46 11 73 37 82 13 4 12 5 -1 10 -19 8 -58 -17 -58 -36 0 -8 -8 -16
-17 -20 -10 -3 -26 -10 -35 -16 -10 -5 -26 -14 -35 -19 -24 -11 -28 -54 -7
-71 14 -12 18 -12 30 5 14 18 14 18 14 -3 0 -14 -6 -22 -17 -22 -15 0 -16 -2
-3 -10 13 -9 13 -11 0 -20 -23 -16 -62 -3 -93 31 -31 33 -33 48 -13 88 8 15
13 39 10 52 -3 18 -3 20 4 6 7 -17 9 -17 26 2 10 11 22 19 26 16 7 -4 46 56
42 68 -1 4 1 6 6 5 4 -1 18 3 32 9 14 6 32 13 40 16 24 10 93 -2 119 -21z
m-124 -22 c-3 -5 -12 -10 -18 -10 -7 0 -6 4 3 10 19 12 23 12 15 0z m-248
-127 c-2 -21 -4 -4 -4 37 0 41 2 58 4 38 2 -21 2 -55 0 -75z m45 69 c-8 -2
-13 -39 -14 -125 -1 -67 -3 -102 -5 -77 -3 24 -9 50 -15 57 -7 9 -7 13 1 13 7
0 11 29 11 86 0 81 1 85 17 68 13 -13 14 -19 5 -22z m108 34 c0 -3 -4 -8 -10
-11 -5 -3 -10 -1 -10 4 0 6 5 11 10 11 6 0 10 -2 10 -4z m334 -72 c14 -15 26
-31 26 -36 0 -6 -13 4 -29 21 -23 25 -35 30 -54 26 -14 -4 -28 -2 -31 4 -5 7
5 11 27 11 24 0 42 -8 61 -26z m-15 -20 c27 -34 27 -74 0 -103 -18 -19 -29
-22 -63 -18 -37 5 -39 4 -22 -9 11 -8 15 -14 9 -14 -5 0 -18 9 -27 19 -17 19
-16 19 28 14 36 -3 49 0 65 16 28 28 26 53 -5 90 -14 17 -21 31 -16 31 6 0 20
-12 31 -26z m-242 -31 c-3 -10 -5 -4 -5 12 0 17 2 24 5 18 2 -7 2 -21 0 -30z
m20 -15 c-2 -13 -4 -5 -4 17 -1 22 1 32 4 23 2 -10 2 -28 0 -40z m110 -15 c-2
-16 -4 -5 -4 22 0 28 2 40 4 28 2 -13 2 -35 0 -50z m-58 -125 l1 -58 -36 0
-37 0 26 24 c18 16 24 30 20 45 -3 12 -2 56 3 99 l8 77 7 -65 c4 -36 7 -91 8
-122z m-102 158 c-10 -8 -18 -16 -17 -18 1 -1 -2 -11 -5 -20 -9 -23 -25 -13
-25 16 0 29 7 36 39 36 24 -1 25 -2 8 -14z m30 -58 c-3 -7 -5 -2 -5 12 0 14 2
19 5 13 2 -7 2 -19 0 -25z m110 10 c-3 -8 -6 -5 -6 6 -1 11 2 17 5 13 3 -3 4
-12 1 -19z m-257 -54 c0 -3 -7 -12 -15 -20 -16 -17 -18 -14 -9 10 6 15 24 23
24 10z"/>
<path d="M145 345 c-29 -28 -32 -63 -9 -91 15 -19 16 -19 9 1 -18 53 -6 89 34
104 18 6 20 10 8 10 -10 1 -29 -10 -42 -24z"/>
</g>
</svg>
